REM DIRINDEX 1\5,1\2\6,1\2\7,1\3\8,1\3\9,1\4\10,1\4\11,1\4\12
REM DIRNAME cjc026,folder01,folder02,folder03,folder04,folder05,folder06,folder07,folder08,folder09,folder10,folder11
TITLE ""
FILE "EJE_DB3000_5th_5C_17.mp3" MP3
  TRACK 01 AUDIO
    TITLE "0:"
    INDEX 01 00:00:00
  TRACK 02 AUDIO
    TITLE "10:cjc026_10779"
    INDEX 01 00:00:08
  TRACK 03 AUDIO
    TITLE "0:"
    INDEX 01 00:01:38
  TRACK 04 AUDIO
    TITLE "11:cjc026_10780"
    INDEX 01 00:02:01
  TRACK 05 AUDIO
    TITLE "0:"
    INDEX 01 00:03:07
  TRACK 06 AUDIO
    TITLE "12:cjc026_10781"
    INDEX 01 00:03:39
  TRACK 07 AUDIO
    TITLE "0:"
    INDEX 01 00:04:72
  TRACK 08 AUDIO
    TITLE "10:cjc026_10782"
    INDEX 01 00:05:32
  TRACK 09 AUDIO
    TITLE "0:"
    INDEX 01 00:06:54
  TRACK 10 AUDIO
    TITLE "11:cjc026_10783"
    INDEX 01 00:07:15
  TRACK 11 AUDIO
    TITLE "0:"
    INDEX 01 00:08:31
  TRACK 12 AUDIO
    TITLE "12:cjc026_10784"
    INDEX 01 00:08:66
  TRACK 13 AUDIO
    TITLE "0:"
    INDEX 01 00:10:11
  TRACK 14 AUDIO
    TITLE "10:cjc026_10785"
    INDEX 01 00:10:51
  TRACK 15 AUDIO
    TITLE "0:"
    INDEX 01 00:12:01
  TRACK 16 AUDIO
    TITLE "11:cjc026_10786"
    INDEX 01 00:12:39
  TRACK 17 AUDIO
    TITLE "0:"
    INDEX 01 00:13:64
  TRACK 18 AUDIO
    TITLE "12:cjc026_10787"
    INDEX 01 00:14:24
  TRACK 19 AUDIO
    TITLE "0:"
    INDEX 01 00:15:49
  TRACK 20 AUDIO
    TITLE "10:cjc026_10788"
    INDEX 01 00:16:09
  TRACK 21 AUDIO
    TITLE "0:"
    INDEX 01 00:17:42
  TRACK 22 AUDIO
    TITLE "11:cjc026_10789"
    INDEX 01 00:18:02
  TRACK 23 AUDIO
    TITLE "0:"
    INDEX 01 00:19:24
  TRACK 24 AUDIO
    TITLE "12:cjc026_10790"
    INDEX 01 00:19:60
  TRACK 25 AUDIO
    TITLE "0:"
    INDEX 01 00:21:18
  TRACK 26 AUDIO
    TITLE "10:cjc026_10791"
    INDEX 01 00:21:50
  TRACK 27 AUDIO
    TITLE "0:"
    INDEX 01 00:23:08
  TRACK 28 AUDIO
    TITLE "11:cjc026_10792"
    INDEX 01 00:23:43
  TRACK 29 AUDIO
    TITLE "0:"
    INDEX 01 00:24:73
  TRACK 30 AUDIO
    TITLE "12:cjc026_10793"
    INDEX 01 00:25:31
  TRACK 31 AUDIO
    TITLE "0:"
    INDEX 01 00:26:66
  TRACK 32 AUDIO
    TITLE "10:cjc026_10794"
    INDEX 01 00:27:29
  TRACK 33 AUDIO
    TITLE "0:"
    INDEX 01 00:28:46
  TRACK 34 AUDIO
    TITLE "11:cjc026_10795"
    INDEX 01 00:29:06
  TRACK 35 AUDIO
    TITLE "0:"
    INDEX 01 00:30:28
  TRACK 36 AUDIO
    TITLE "12:cjc026_10796"
    INDEX 01 00:30:66
  TRACK 37 AUDIO
    TITLE "0:"
    INDEX 01 00:32:08
  TRACK 38 AUDIO
    TITLE "10:cjc026_10797"
    INDEX 01 00:32:43
  TRACK 39 AUDIO
    TITLE "0:"
    INDEX 01 00:33:71
  TRACK 40 AUDIO
    TITLE "11:cjc026_10798"
    INDEX 01 00:34:31
  TRACK 41 AUDIO
    TITLE "0:"
    INDEX 01 00:36:16
  TRACK 42 AUDIO
    TITLE "12:cjc026_10799"
    INDEX 01 00:36:48
  TRACK 43 AUDIO
    TITLE "0:"
    INDEX 01 00:38:01
  TRACK 44 AUDIO
    TITLE "10:cjc026_10800"
    INDEX 01 00:38:39
  TRACK 45 AUDIO
    TITLE "0:"
    INDEX 01 00:39:72
  TRACK 46 AUDIO
    TITLE "11:cjc026_10801"
    INDEX 01 00:40:34
  TRACK 47 AUDIO
    TITLE "0:"
    INDEX 01 00:41:67
  TRACK 48 AUDIO
    TITLE "12:cjc026_10802"
    INDEX 01 00:42:33
  TRACK 49 AUDIO
    TITLE "0:"
    INDEX 01 00:43:66
  TRACK 50 AUDIO
    TITLE "10:cjc026_10803"
    INDEX 01 00:44:26
  TRACK 51 AUDIO
    TITLE "0:"
    INDEX 01 00:45:70
  TRACK 52 AUDIO
    TITLE "11:cjc026_10804"
    INDEX 01 00:46:33
  TRACK 53 AUDIO
    TITLE "0:"
    INDEX 01 00:48:04
  TRACK 54 AUDIO
    TITLE "12:cjc026_10805"
    INDEX 01 00:48:36
  TRACK 55 AUDIO
    TITLE "0:"
    INDEX 01 00:50:05
  TRACK 56 AUDIO
    TITLE "10:cjc026_10806"
    INDEX 01 00:50:43
  TRACK 57 AUDIO
    TITLE "0:"
    INDEX 01 00:51:54
  TRACK 58 AUDIO
    TITLE "11:cjc026_10807"
    INDEX 01 00:52:17
  TRACK 59 AUDIO
    TITLE "0:"
    INDEX 01 00:53:45
  TRACK 60 AUDIO
    TITLE "12:cjc026_10808"
    INDEX 01 00:54:05
  TRACK 61 AUDIO
    TITLE "0:"
    INDEX 01 00:55:16
  TRACK 62 AUDIO
    TITLE "10:cjc026_10809"
    INDEX 01 00:55:54
  TRACK 63 AUDIO
    TITLE "0:"
    INDEX 01 00:56:60
  TRACK 64 AUDIO
    TITLE "11:cjc026_10810"
    INDEX 01 00:57:23
  TRACK 65 AUDIO
    TITLE "0:"
    INDEX 01 00:58:32
  TRACK 66 AUDIO
    TITLE "12:cjc026_10811"
    INDEX 01 00:58:67
  TRACK 67 AUDIO
    TITLE "0:"
    INDEX 01 01:00:00
  TRACK 68 AUDIO
    TITLE "10:cjc026_10812"
    INDEX 01 01:00:38
  TRACK 69 AUDIO
    TITLE "0:"
    INDEX 01 01:01:63
  TRACK 70 AUDIO
    TITLE "11:cjc026_10813"
    INDEX 01 01:02:23
  TRACK 71 AUDIO
    TITLE "0:"
    INDEX 01 01:03:48
  TRACK 72 AUDIO
    TITLE "12:cjc026_10814"
    INDEX 01 01:04:11
  TRACK 73 AUDIO
    TITLE "0:"
    INDEX 01 01:05:36
  TRACK 74 AUDIO
    TITLE "10:cjc026_10815"
    INDEX 01 01:05:71
  TRACK 75 AUDIO
    TITLE "0:"
    INDEX 01 01:07:18
  TRACK 76 AUDIO
    TITLE "11:cjc026_10816"
    INDEX 01 01:07:56
  TRACK 77 AUDIO
    TITLE "0:"
    INDEX 01 01:08:73
  TRACK 78 AUDIO
    TITLE "12:cjc026_10817"
    INDEX 01 01:09:36
  TRACK 79 AUDIO
    TITLE "0:"
    INDEX 01 01:10:55
  TRACK 80 AUDIO
    TITLE "10:cjc026_10818"
    INDEX 01 01:11:18
  TRACK 81 AUDIO
    TITLE "0:"
    INDEX 01 01:12:59
  TRACK 82 AUDIO
    TITLE "11:cjc026_10819"
    INDEX 01 01:13:16
  TRACK 83 AUDIO
    TITLE "0:"
    INDEX 01 01:15:42
  TRACK 84 AUDIO
    TITLE "12:cjc026_10820"
    INDEX 01 01:16:02
  TRACK 85 AUDIO
    TITLE "0:"
    INDEX 01 01:17:43
  TRACK 86 AUDIO
    TITLE "10:cjc026_10821"
    INDEX 01 01:18:00
  TRACK 87 AUDIO
    TITLE "0:"
    INDEX 01 01:19:47
  TRACK 88 AUDIO
    TITLE "11:cjc026_10822"
    INDEX 01 01:20:04
  TRACK 89 AUDIO
    TITLE "0:"
    INDEX 01 01:21:40
  TRACK 90 AUDIO
    TITLE "12:cjc026_10823"
    INDEX 01 01:21:72
  TRACK 91 AUDIO
    TITLE "0:"
    INDEX 01 01:23:44
